PathFileType	4	(X/Y/Z)	20_1_53_p1_0-384_filt_butterworth.trc
DataRate	CameraRate	NumFrames	NumMarkers	Units	OrigDataRate	OrigDataStartFrame	OrigNumFrames
60.0	60.0	6	27	m	60.0	336	384
Frame#	Time	RHip			RKnee			RAnkle			RBigToe			RSmallToe			RHeel			LHip			LKnee			LAnkle			LBigToe			LSmallToe			LHeel			Neck			Head			Nose			RShoulder			RElbow			RWrist			RThumb			RIndex			RPinky			LShoulder			LElbow			LWrist			LThumb			LIndex			LPinky			
		X1	Y1	Z1	X2	Y2	Z2	X3	Y3	Z3	X4	Y4	Z4	X5	Y5	Z5	X6	Y6	Z6	X7	Y7	Z7	X8	Y8	Z8	X9	Y9	Z9	X10	Y10	Z10	X11	Y11	Z11	X12	Y12	Z12	X13	Y13	Z13	X14	Y14	Z14	X15	Y15	Z15	X16	Y16	Z16	X17	Y17	Z17	X18	Y18	Z18	X19	Y19	Z19	X20	Y20	Z20	X21	Y21	Z21	X22	Y22	Z22	X23	Y23	Z23	X24	Y24	Z24	X25	Y25	Z25	X26	Y26	Z26	X27	Y27	Z27	
336	5.6	0.3654527949291188	0.58038725229904	0.9716626965739329	0.3620110118965397	0.6958404445197109	1.3620045709059279	0.3501466206581624	0.7934848984560049	1.7407654739524685	0.31440655059367395	0.6359007201580853	1.8156350694290408	0.38251559035807536	0.6383803226216993	1.7974949514504597	0.3291159985246336	0.8703484503320706	1.7896569166933332	0.16060398052788588	0.5668785123288633	0.972507270882411	0.1536801562793726	0.713115349502286	1.3472219934980765	0.1469575298773525	0.8002665763010525	1.709048800306049	0.14819484727880622	0.6172123143094441	1.7875085718643715	0.09380365631730717	0.6852096313718586	1.7844697571972317	0.1639707284294307	0.8303176722544969	1.745193767118821	0.26876361563988727	0.4209064045848678	0.44341685063797176	0.2651470043762507	0.3333133453019647	0.21943184787388906	0.2608698107248386	0.25305414257642256	0.34849471301443	0.39732582053332277	0.4249187195603481	0.5345559494101009	0.45371343492833094	0.4674036089841225	0.8084827502369146	0.3239358115275773	0.4044402897085797	0.9998933619019291	0.21334711156980887	0.40269779180562304	1.057123800103587	0.2172440848274222	0.4190373714013743	1.0740593786250168	0.2376333652926332	0.42953434616986846	1.1091944414986106	0.1200453741420658	0.497873351310748	0.535218214386551	0.09086634068108422	0.49022547113126297	0.7828743126498562	0.15438449488369824	0.415435026210122	0.9846636899146142	0.21874235351585958	0.3870018514417855	1.0527788199207933	0.22099173767048055	0.39303609330551353	1.0660508965321995	0.22863714801204243	0.41698878255981436	1.078388693410118
337	5.616666666666666	0.36765482364869384	0.5804211699410347	0.9725682676397681	0.36203301005672495	0.6957389550138252	1.3619623874254656	0.35016214543409496	0.793339763693732	1.740747295876004	0.3145608632827922	0.6358452629069766	1.815661419571963	0.38365255677346144	0.6427390523741823	1.800161446600103	0.3286790711402753	0.8700651668011803	1.7872437275986666	0.1605105614537026	0.5681445178040769	0.9728967153075285	0.15330867750935007	0.711659800558132	1.3472824780814665	0.14695756263079834	0.8001970377101456	1.7090139600870122	0.14815818946891496	0.6178877744848008	1.7877211800245039	0.0940955484346238	0.6846363398365732	1.7834196300165144	0.16291227254116816	0.8295419069920007	1.7443536309899466	0.26882411976227283	0.4207940183267098	0.4443334652069809	0.26507935449425946	0.33331122538893265	0.21941715599833236	0.2608596806815511	0.2529946168865437	0.34848558506337257	0.39734157858121916	0.42496356158972387	0.5345828665610879	0.4538373495019019	0.4673481900677873	0.8088868705213563	0.32394053906820275	0.4044397300461792	0.9999435123595413	0.21331748012933754	0.40243250518281076	1.0571069861653961	0.21771816188922713	0.4202075620859662	1.0732896820035847	0.237637519716569	0.42936925367467793	1.1089768809398026	0.12100012648641503	0.500916144487548	0.5352338053713718	0.08933854952450498	0.49020950539731356	0.7838844647079157	0.15438468402680902	0.4119416743458844	0.9839507060988493	0.22000356639585256	0.39009317739225313	1.0532302231250377	0.22106267388792755	0.3929932489887096	1.0660520288940696	0.22866653238804627	0.4172000793316707	1.078340286951129
338	5.633333333333334	0.3680222091170626	0.5783119943423845	0.9729641090028895	0.3620376959520694	0.6956824210767921	1.3619083336867799	0.3501732934889721	0.7933061390107483	1.7407362730920006	0.31451387675614634	0.6353287456651346	1.8155624643943924	0.3841558414549711	0.6444941123091098	1.8012604541242236	0.3283535703771261	0.8697387794069098	1.7857547752282188	0.1605524282629898	0.5679997762119944	0.9734677304203687	0.15223800586825773	0.7074471512978155	1.347197785352374	0.1469497812330036	0.8001421093118116	1.708944499540166	0.1482168261163304	0.6179688268142449	1.787762150736564	0.09413338452628742	0.6846945595518878	1.7829648748529237	0.16244329647998187	0.8297263250061298	1.74441509295982	0.2689055705361932	0.42064175153651145	0.445529072789608	0.26504580784451814	0.3333182679941171	0.21941126390083815	0.26085603421450737	0.25299110142104453	0.34843470962703815	0.3973409066819643	0.4249055361911467	0.5346034807778041	0.453959749690098	0.4672089982351271	0.8090045928970648	0.32393217309708044	0.40446175185045996	0.9999670805662515	0.2132723293754596	0.4022633886079672	1.057043378349265	0.21777361385240293	0.4196152514611641	1.0709534971475063	0.2378156260674734	0.42955440849160775	1.1079639331308855	0.12141591093055396	0.5021308348376048	0.5351390247366534	0.08806813417387319	0.490159428409122	0.7841326000440002	0.15360199227277196	0.4110136528137525	0.9834830665231609	0.22049883714934856	0.39124749446812823	1.0533925074269161	0.22110209921327867	0.39305781960765585	1.0660446537686845	0.22820995711505063	0.4189122118123952	1.078210610521553
339	5.65	0.36759423255281226	0.5740763675432644	0.9730971361694958	0.362026281407526	0.695672442481472	1.3618724484945843	0.35017629874570494	0.7933280326051773	1.7407366117318426	0.3144232622417068	0.634891170727525	1.815468229249215	0.3842149397503471	0.6443753826542774	1.8013019792853107	0.32824851115943643	0.8692615739676669	1.7858643862854189	0.16096296085710754	0.5676447378312143	0.9742086767659237	0.15083229794810288	0.7019582779491692	1.3468435427836654	0.14694741644673465	0.800096653430449	1.7089086433933744	0.1482514182390096	0.6179527416368931	1.7877054180197136	0.09406759498503761	0.6849379021933535	1.782882695711567	0.1624118651093309	0.8301720170469395	1.7451376585047451	0.26897702440781907	0.4205020026999249	0.44643812439735414	0.2650370811746426	0.3333471071347781	0.21940431859815535	0.2608653156369468	0.2530472742846259	0.34844265616521475	0.3972908167824928	0.42469246173263925	0.5346219243439291	0.45402648983146315	0.4670343387036558	0.8090482619915393	0.3239158195955891	0.4045036982396552	0.9999523253294026	0.2132483837348285	0.4022091017276169	1.0569460072326746	0.21762779817907538	0.4182591911419947	1.0683297658967672	0.23822943549960718	0.43095488009020444	1.1059777823951242	0.12145972073187683	0.5021633869369533	0.5350732814755819	0.08750500530024852	0.4901196485292582	0.7839699441696455	0.15278726265182888	0.4125510319100324	0.9831518237057729	0.22012660633005499	0.39018391291069787	1.0532254278444217	0.2210961775500997	0.39321399228078435	1.0660159932289057	0.22719202935342991	0.42276106753056725	1.0778823058503455
340	5.666666666666667	0.36698194575872867	0.5716017919272455	0.9733990304260075	0.36200473843766623	0.6957213988280782	1.361876018176272	0.35017642608072896	0.7933402712379682	1.7407409191863172	0.31430355741250415	0.6346636741447356	1.8154057292206058	0.3840913525436913	0.6436907427151772	1.8010523788228945	0.3282820035661995	0.8688776214643285	1.787035768066762	0.16189880871273957	0.5676928272077959	0.9753255805723119	0.14968423746760645	0.6978212655580792	1.3461331430768415	0.14694254155141986	0.8000897491006321	1.7089129508499368	0.14823780329083766	0.6179607164438876	1.7877170317058968	0.093981976239672	0.6851340112724765	1.7829926830569411	0.16246658516477283	0.8304341359282421	1.7464548490719802	0.26901976427071356	0.4204091145501361	0.4468019307852867	0.2650343011498722	0.33338807012904254	0.2193911755587717	0.26089136251112555	0.253128874879451	0.348764204299329	0.3972001899750406	0.42438098601431246	0.5346413142157432	0.4540380475089039	0.46699464527631224	0.8090187272466312	0.32389488030049607	0.4045563346738936	0.9999231596617685	0.2132459957154561	0.4022376666394286	1.0568593063019565	0.21717449656256607	0.41619966444611967	1.0666156005945706	0.23852253321677333	0.43426437588239886	1.1038636235742731	0.12139869380855445	0.5019051747824161	0.5350625114876524	0.08738528813830537	0.49008372223982016	0.7837892716702402	0.1527427029299106	0.4160754535720531	0.9827833377947885	0.2189941460914434	0.3870786463235479	1.0527719350594429	0.22106419652954315	0.39336520178007517	1.0659788956628147	0.2259172292211534	0.42767694171183535	1.0774225523110004
341	5.683333333333334	0.36647319554707214	0.5752287829684849	0.9737600907258422	0.36198057945804984	0.6958269428195498	1.3619126929874983	0.3501802104304541	0.7933337721459857	1.740745984436264	0.3141703412927382	0.6345914947943916	1.8153711395233845	0.38391807735294314	0.6432343389296428	1.8008751935019467	0.3283298362648711	0.8688192933174106	1.7877698975874912	0.1631055065826126	0.5680768490119215	0.976603328377316	0.14913579686014505	0.6967292931551063	1.3455211786187329	0.14692763372957904	0.800129762419515	1.708923658687926	0.1480958421758501	0.6182540516114777	1.7881155098121142	0.09379862898531768	0.6855067606941416	1.7834740328140177	0.1623166058075168	0.8305939087361971	1.7480354463114953	0.2690423564158806	0.4203611032686705	0.44681383973336336	0.26503133299474657	0.3334332804041904	0.21937685790313677	0.26092841396156646	0.2531762893305004	0.3495969214333607	0.39721781792523675	0.4243854852723512	0.5346430237754174	0.4540285738359986	0.46721830334630166	0.8086669524881265	0.3238658356582107	0.40462493934670796	0.999921688024372	0.21323855340744519	0.402323709013708	1.0568322619497073	0.21622101519881703	0.4129371621015223	1.0659852393432478	0.2379615585459242	0.4387361440785167	1.1030120931815295	0.12136326102607004	0.5017365622534861	0.5350838143340328	0.08737190093535628	0.4900243945573756	0.7836338240777321	0.15324074856881983	0.4203378007895706	0.9824310445239132	0.21756527967434516	0.38312615244616033	1.052221712258166	0.2210391004140243	0.39346396862076116	1.0659951297333123	0.2249670635969789	0.43134219520285627	1.077066892053828
